<?xml version="1.0" encoding="utf-8"?>
<!-- Generator: Adobe Illustrator 14.0.0, SVG Export Plug-In . SVG Version: 6.00 Build 43363)  -->
<!DOCTYPE svg PUBLIC "-//W3C//DTD SVG 1.1//EN" "http://www.w3.org/Graphics/SVG/1.1/DTD/svg11.dtd">
<svg version="1.1" id="Laag_1" xmlns="http://www.w3.org/2000/svg" xmlns:xlink="http://www.w3.org/1999/xlink" x="0px" y="0px"
	 width="800px" height="800px" viewBox="0 0 800 800" enable-background="new 0 0 800 800" xml:space="preserve">
<g>
	<path fill="#CC2E29" d="M798.5,399.997l-104.386-20.568h0.003c-27.356-5.39-31.274-29.279-31.274-29.279v0.113
		c-20.334-107.688-105.411-192.767-213.097-213.104h0.104c0,0-23.888-3.92-29.277-31.276v0.034L399.996,1.5L379.421,105.92
		c-5.404,27.322-29.271,31.239-29.271,31.239h0.103C242.569,157.496,157.495,242.57,137.158,350.253v-0.104
		c0,0-3.92,23.889-31.276,29.279h0.027L1.5,400.003l104.383,20.568h-0.002c27.356,5.39,31.276,29.278,31.276,29.278v-0.104
		c20.337,107.684,105.411,192.758,213.095,213.095h-0.104c0,0,23.889,3.92,29.279,31.276v-0.023L400.002,798.5l20.567-104.385v0.002
		c5.391-27.356,29.281-31.276,29.281-31.276h-0.104c107.686-20.337,192.763-105.416,213.097-213.104v0.112
		c0,0,3.918-23.889,31.274-29.278h-0.025L798.5,399.997z M585.158,344.001c0.752,3.044,2.201,14.365-19.412,10.132l-39.498-7.781
		h0.01c0,0-12.96-3.568-18.054-11.354v0.024c-10.664-17.688-25.535-32.559-43.222-43.223h0.016
		c-7.786-5.095-11.353-18.054-11.353-18.054v0.006l-7.767-39.422l0,0c-4.277-21.705,7.085-20.239,10.126-19.485
		C517.707,233.543,566.46,282.299,585.158,344.001z M452.189,400c0,28.777-23.412,52.189-52.19,52.189
		c-28.777,0-52.19-23.412-52.19-52.189s23.413-52.19,52.19-52.19C428.777,347.81,452.189,371.223,452.189,400z M343.994,214.844
		c3.041-0.754,14.403-2.22,10.125,19.485l0,0l-7.767,39.418v-0.002c0,0-3.568,12.959-11.354,18.054h0.017
		c-17.686,10.661-32.556,25.532-43.217,43.218v-0.019c-5.094,7.787-18.054,11.356-18.054,11.356h0.01l-39.429,7.769
		c-21.756,4.286-20.228-7.144-19.476-10.15C233.553,282.283,282.302,233.54,343.994,214.844z M214.845,456.012
		c-0.753-3.032-2.233-14.41,19.485-10.13v-0.002l39.428,7.769c0.144,0.041,12.975,3.61,18.041,11.353v-0.019
		c10.662,17.687,25.532,32.556,43.218,43.218h-0.018c7.787,5.095,11.354,18.055,11.354,18.055v-0.002l7.768,39.418h0
		c4.273,21.686-7.063,20.242-10.117,19.487C282.302,566.463,233.546,517.712,214.845,456.012z M455.992,585.16
		c-3.057,0.753-14.378,2.187-10.117-19.469l7.771-39.44v0.004c0,0,3.569-12.96,11.356-18.055h-0.02
		c17.687-10.662,32.558-25.535,43.222-43.223V465c5.094-7.786,18.054-11.354,18.054-11.354h-0.01l39.423-7.768v0.004
		c21.661-4.27,20.245,7.036,19.491,10.105C566.466,517.699,517.704,566.463,455.992,585.16z"/>
</g>
</svg>
