<?xml version="1.0" encoding="utf-8"?>
<!-- Generator: Adobe Illustrator 14.0.0, SVG Export Plug-In . SVG Version: 6.00 Build 43363)  -->
<!DOCTYPE svg PUBLIC "-//W3C//DTD SVG 1.1//EN" "http://www.w3.org/Graphics/SVG/1.1/DTD/svg11.dtd">
<svg version="1.1" id="Laag_1" xmlns="http://www.w3.org/2000/svg" xmlns:xlink="http://www.w3.org/1999/xlink" x="0px" y="0px"
	 width="800px" height="800px" viewBox="0 0 800 800" enable-background="new 0 0 800 800" xml:space="preserve">
<path fill="#068397" d="M640.527,691.939c-103.365,70.566-202.729,61.303-202.729,61.303
	c96.793-22.048,169.389-115.613,169.389-115.613c-107.549-14.519-166.162,63.453-166.162,63.453
	c13.442-72.596,77.435-120.992,77.435-120.992c115.615-83.351,112.389-186.597,112.389-186.597
	c1.076-171.002-149.493-234.456-149.493-234.456s144.653,1.614,210.796,147.879c0,0-3.229-150.029-230.154-265.644
	c0,0,316.19,43.557,339.314,302.749c0,0,5.377,110.239-87.114,196.814c0,0,40.331-12.37,68.832-37.643
	C783.028,503.192,752.378,615.579,640.527,691.939z"/>
<polygon fill="#068397" points="401.5,640.931 368.33,473.461 267.523,529.826 335.812,436.605 226.333,408.967 334.186,381.868 
	273.485,277.809 368.33,343.388 401.5,179.713 434.67,343.388 529.516,277.809 468.814,381.868 576.667,408.967 467.188,436.605 
	535.477,529.826 434.67,473.461 "/>
<path fill="#068397" d="M162.473,691.939c103.365,70.566,202.729,61.303,202.729,61.303
	c-96.793-22.048-169.389-115.613-169.389-115.613c107.549-14.519,166.163,63.453,166.163,63.453
	c-13.443-72.596-77.435-120.992-77.435-120.992c-115.615-83.351-112.389-186.597-112.389-186.597
	c-1.076-171.002,149.493-234.456,149.493-234.456s-144.653,1.614-210.796,147.879c0,0,3.228-150.029,230.154-265.644
	c0,0-316.191,43.557-339.315,302.749c0,0-5.377,110.239,87.114,196.814c0,0-40.331-12.37-68.832-37.643
	C19.972,503.192,50.622,615.579,162.473,691.939z"/>
</svg>
